# xmcd CD database file
#
# Track frame offsets:
#	150
#	41977
#	79954
#	137712
#	167946
#
# Disc length: 3171 seconds
#
# Revision: 0
# Processed by: cddbd v1.5.1PL0 Copyright (c) Steve Scherf et al.
# Submitted via: CDex 1.51
#
DISCID=440c6105
DTITLE=Marc Ribot - Spiritual Unity
DYEAR=2005
DGENRE=Jazz
TTITLE0=Invocation
TTITLE1=Spirits
TTITLE2=Truth Is Marching In 
TTITLE3=Saints
TTITLE4=Bells
EXTD=YEAR: 2005
EXTT0=
EXTT1=
EXTT2=
EXTT3=
EXTT4=
PLAYORDER=
